<svg width="120" height="56" viewBox="0 0 120 56" fill="none" xmlns="http://www.w3.org/2000/svg">
<path d="M32 25H31C30.4696 25 29.9609 25.2107 29.5858 25.5858C29.2107 25.9609 29 26.4696 29 27V35C29 35.5304 29.2107 36.0391 29.5858 36.4142C29.9609 36.7893 30.4696 37 31 37H41C41.5304 37 42.0391 36.7893 42.4142 36.4142C42.7893 36.0391 43 35.5304 43 35V27C43 26.4696 42.7893 25.9609 42.4142 25.5858C42.0391 25.2107 41.5304 25 41 25H40" stroke="#27292C" stroke-width="1.5" stroke-linecap="round" stroke-linejoin="round"/>
<path d="M36 30V19" stroke="#27292C" stroke-width="1.5" stroke-linecap="round" stroke-linejoin="round"/>
<path d="M33 22L36 19L39 22" stroke="#27292C" stroke-width="1.5" stroke-linecap="round" stroke-linejoin="round"/>
<path d="M62.9117 25.6172C62.8653 25.183 62.6697 24.8449 62.325 24.603C61.9836 24.361 61.5395 24.2401 60.9926 24.2401C60.6082 24.2401 60.2784 24.2981 60.0033 24.4141C59.7282 24.5301 59.5177 24.6875 59.3719 24.8864C59.2261 25.0852 59.1515 25.3123 59.1482 25.5675C59.1482 25.7796 59.1962 25.9635 59.2923 26.1193C59.3918 26.2751 59.526 26.4077 59.695 26.517C59.8641 26.6231 60.0513 26.7126 60.2568 26.7855C60.4623 26.8584 60.6695 26.9197 60.8783 26.9695L61.8328 27.2081C62.2173 27.2976 62.5869 27.4186 62.9415 27.571C63.2994 27.7235 63.6193 27.9157 63.901 28.1477C64.186 28.3797 64.4114 28.6598 64.5771 28.9879C64.7429 29.3161 64.8257 29.7005 64.8257 30.1413C64.8257 30.7379 64.6733 31.2633 64.3683 31.7173C64.0634 32.1681 63.6226 32.5211 63.0459 32.7763C62.4725 33.0282 61.7781 33.1541 60.9628 33.1541C60.1707 33.1541 59.4829 33.0315 58.8996 32.7862C58.3196 32.541 57.8655 32.183 57.5374 31.7124C57.2126 31.2417 57.0369 30.6683 57.0104 29.9922H58.825C58.8515 30.3468 58.9609 30.6418 59.1531 30.8771C59.3454 31.1125 59.5956 31.2881 59.9039 31.4041C60.2154 31.5201 60.5634 31.5781 60.9479 31.5781C61.3489 31.5781 61.7003 31.5185 62.0019 31.3991C62.3068 31.2765 62.5454 31.1075 62.7178 30.892C62.8901 30.6733 62.978 30.4181 62.9813 30.1264C62.978 29.8613 62.9001 29.6425 62.7476 29.4702C62.5951 29.2945 62.3814 29.1487 62.1063 29.0327C61.8345 28.9134 61.5163 28.8073 61.1517 28.7145L59.9933 28.4162C59.1548 28.2008 58.4919 27.8743 58.0047 27.4368C57.5208 26.996 57.2789 26.411 57.2789 25.6818C57.2789 25.0819 57.4413 24.5566 57.7661 24.1058C58.0942 23.6551 58.54 23.3054 59.1034 23.0568C59.6669 22.8049 60.3049 22.679 61.0175 22.679C61.74 22.679 62.3731 22.8049 62.9166 23.0568C63.4635 23.3054 63.8927 23.6518 64.2043 24.0959C64.5158 24.5367 64.6766 25.0438 64.6865 25.6172H62.9117ZM68.1903 28.5256V33H66.3905V22.8182H68.1505V26.6612H68.24C68.4189 26.2304 68.6957 25.8906 69.0702 25.642C69.4481 25.3902 69.9287 25.2642 70.512 25.2642C71.0423 25.2642 71.5046 25.3752 71.8991 25.5973C72.2935 25.8194 72.5984 26.1442 72.8138 26.5717C73.0326 26.9993 73.142 27.5213 73.142 28.1378V33H71.3422V28.4162C71.3422 27.9025 71.2097 27.5031 70.9445 27.218C70.6827 26.9297 70.3148 26.7855 69.8408 26.7855C69.5226 26.7855 69.2376 26.8551 68.9857 26.9943C68.7371 27.1302 68.5416 27.3274 68.3991 27.5859C68.2599 27.8445 68.1903 28.1577 68.1903 28.5256ZM77.1739 33.1541C76.69 33.1541 76.2542 33.0679 75.8664 32.8956C75.4819 32.7199 75.177 32.4614 74.9516 32.12C74.7296 31.7786 74.6185 31.3577 74.6185 30.8572C74.6185 30.4264 74.6981 30.0701 74.8572 29.7884C75.0162 29.5066 75.2333 29.2812 75.5084 29.1122C75.7835 28.9432 76.0934 28.8156 76.4381 28.7294C76.7861 28.6399 77.1457 28.5753 77.517 28.5355C77.9644 28.4891 78.3273 28.4477 78.6057 28.4112C78.8841 28.3714 79.0863 28.3118 79.2123 28.2322C79.3415 28.1494 79.4062 28.0218 79.4062 27.8494V27.8196C79.4062 27.4451 79.2951 27.1551 79.0731 26.9496C78.851 26.7441 78.5312 26.6413 78.1135 26.6413C77.6727 26.6413 77.3231 26.7375 77.0645 26.9297C76.8093 27.1219 76.637 27.349 76.5475 27.6108L74.8671 27.3722C74.9997 26.9081 75.2184 26.5204 75.5233 26.2088C75.8283 25.8939 76.2011 25.6586 76.642 25.5028C77.0828 25.3438 77.57 25.2642 78.1036 25.2642C78.4715 25.2642 78.8377 25.3073 79.2023 25.3935C79.5669 25.4796 79.9 25.6222 80.2016 25.821C80.5032 26.0166 80.7452 26.2834 80.9275 26.6214C81.1131 26.9595 81.2059 27.3821 81.2059 27.8892V33H79.4758V31.951H79.4161C79.3067 32.1631 79.1526 32.362 78.9537 32.5476C78.7582 32.7299 78.5113 32.8774 78.213 32.9901C77.918 33.0994 77.5716 33.1541 77.1739 33.1541ZM77.6412 31.8317C78.0025 31.8317 78.3157 31.7604 78.5809 31.6179C78.846 31.4721 79.0499 31.2798 79.1924 31.0412C79.3382 30.8026 79.4111 30.5424 79.4111 30.2607V29.3608C79.3548 29.4072 79.2587 29.4503 79.1228 29.4901C78.9902 29.5298 78.8411 29.5646 78.6753 29.5945C78.5096 29.6243 78.3456 29.6508 78.1831 29.674C78.0207 29.6972 77.8799 29.7171 77.7606 29.7337C77.4921 29.7701 77.2518 29.8298 77.0397 29.9126C76.8276 29.9955 76.6602 30.1115 76.5376 30.2607C76.4149 30.4065 76.3536 30.5954 76.3536 30.8274C76.3536 31.1589 76.4746 31.4091 76.7165 31.5781C76.9585 31.7472 77.2667 31.8317 77.6412 31.8317ZM83.0155 33V25.3636H84.7606V26.6364H84.8401C84.9793 26.1955 85.218 25.8558 85.556 25.6172C85.8974 25.3752 86.2868 25.2543 86.7243 25.2543C86.8238 25.2543 86.9348 25.2592 87.0574 25.2692C87.1834 25.2758 87.2878 25.2874 87.3706 25.304V26.9595C87.2944 26.933 87.1734 26.9098 87.0077 26.8899C86.8453 26.8667 86.6879 26.8551 86.5354 26.8551C86.2073 26.8551 85.9123 26.9264 85.6505 27.0689C85.392 27.2081 85.1881 27.402 85.039 27.6506C84.8898 27.8991 84.8153 28.1858 84.8153 28.5107V33H83.0155ZM91.6325 33.1491C90.8669 33.1491 90.2057 32.9901 89.6489 32.6719C89.0954 32.3504 88.6695 31.8963 88.3712 31.3097C88.0729 30.7197 87.9237 30.0253 87.9237 29.2266C87.9237 28.4411 88.0729 27.7517 88.3712 27.1584C88.6728 26.5618 89.0937 26.0978 89.634 25.7663C90.1742 25.4316 90.8089 25.2642 91.5381 25.2642C92.0087 25.2642 92.4529 25.3404 92.8705 25.4929C93.2914 25.642 93.6626 25.8741 93.9841 26.1889C94.3089 26.5038 94.5641 26.9048 94.7497 27.392C94.9353 27.8759 95.0281 28.4527 95.0281 29.1222V29.674H88.7689V28.4609H93.303C93.2997 28.1162 93.2251 27.8097 93.0793 27.5412C92.9334 27.2694 92.7296 27.0556 92.4678 26.8999C92.2093 26.7441 91.9076 26.6662 91.5629 26.6662C91.195 26.6662 90.8719 26.7557 90.5935 26.9347C90.3151 27.1103 90.098 27.3423 89.9422 27.6307C89.7897 27.9157 89.7119 28.2289 89.7085 28.5703V29.6293C89.7085 30.0734 89.7897 30.4545 89.9521 30.7727C90.1146 31.0876 90.3416 31.3295 90.6333 31.4986C90.9249 31.6643 91.2663 31.7472 91.6574 31.7472C91.9192 31.7472 92.1562 31.7107 92.3683 31.6378C92.5805 31.5616 92.7644 31.4505 92.9202 31.3047C93.076 31.1589 93.1936 30.9782 93.2732 30.7628L94.9536 30.9517C94.8475 31.3958 94.6453 31.7836 94.347 32.1151C94.0521 32.4432 93.6742 32.6984 93.2135 32.8807C92.7528 33.0597 92.2258 33.1491 91.6325 33.1491Z" fill="#27292C"/>
</svg>
